<svg width="29" height="29" viewBox="0 0 29 29" fill="none" xmlns="http://www.w3.org/2000/svg">
<g id="bxl-instagram">
<path id="Vector" d="M14.4985 8.91382C13.0166 8.91382 11.5955 9.50248 10.5476 10.5503C9.4998 11.5981 8.91113 13.0193 8.91113 14.5012C8.91113 15.983 9.4998 17.4042 10.5476 18.452C11.5955 19.4998 13.0166 20.0885 14.4985 20.0885C15.9803 20.0885 17.4015 19.4998 18.4493 18.452C19.4971 17.4042 20.0858 15.983 20.0858 14.5012C20.0858 13.0193 19.4971 11.5981 18.4493 10.5503C17.4015 9.50248 15.9803 8.91382 14.4985 8.91382ZM14.4985 18.1298C13.5358 18.1298 12.6125 17.7473 11.9318 17.0666C11.2511 16.3859 10.8686 15.4626 10.8686 14.4999C10.8686 13.5373 11.2511 12.614 11.9318 11.9333C12.6125 11.2525 13.5358 10.8701 14.4985 10.8701C15.4612 10.8701 16.3844 11.2525 17.0651 11.9333C17.7459 12.614 18.1283 13.5373 18.1283 14.4999C18.1283 15.4626 17.7459 16.3859 17.0651 17.0666C16.3844 17.7473 15.4612 18.1298 14.4985 18.1298Z" fill="black"/>
<path id="Vector_2" d="M20.3075 10.011C21.0269 10.011 21.6101 9.42786 21.6101 8.70847C21.6101 7.98907 21.0269 7.40588 20.3075 7.40588C19.5881 7.40588 19.0049 7.98907 19.0049 8.70847C19.0049 9.42786 19.5881 10.011 20.3075 10.011Z" fill="black"/>
<path id="Vector_3" d="M24.8102 7.38406C24.5305 6.6617 24.103 6.0057 23.5552 5.45805C23.0073 4.91041 22.3512 4.48318 21.6287 4.20373C20.7833 3.88637 19.8901 3.71477 18.9873 3.69623C17.8237 3.64548 17.4551 3.63098 14.5044 3.63098C11.5536 3.63098 11.1754 3.63098 10.0215 3.69623C9.1193 3.71382 8.22678 3.88546 7.38245 4.20373C6.65979 4.48286 6.00346 4.90997 5.45557 5.45765C4.90767 6.00534 4.48031 6.66151 4.20091 7.38406C3.88349 8.22943 3.71228 9.12266 3.69462 10.0255C3.64266 11.1879 3.62695 11.5564 3.62695 14.5084C3.62695 17.4591 3.62695 17.8349 3.69462 18.9913C3.71274 19.8951 3.88312 20.7869 4.20091 21.6339C4.4811 22.3562 4.90887 23.0121 5.4569 23.5598C6.00492 24.1074 6.66116 24.5346 7.38366 24.8143C8.22639 25.1444 9.11928 25.3283 10.0239 25.358C11.1875 25.4088 11.556 25.4245 14.5068 25.4245C17.4575 25.4245 17.8357 25.4245 18.9897 25.358C19.8925 25.3397 20.7856 25.1685 21.6311 24.8517C22.3534 24.5716 23.0094 24.144 23.5572 23.5962C24.105 23.0484 24.5326 22.3925 24.8127 21.6702C25.1305 20.8244 25.3008 19.9326 25.319 19.0288C25.3709 17.8664 25.3866 17.4978 25.3866 14.5459C25.3866 11.5939 25.3866 11.2193 25.319 10.0629C25.3049 9.14735 25.1328 8.24107 24.8102 7.38406ZM23.3385 18.9019C23.3307 19.5983 23.2036 20.2881 22.9627 20.9416C22.7812 21.4114 22.5034 21.8381 22.1472 22.1942C21.7909 22.5503 21.364 22.8278 20.894 23.009C20.2479 23.2488 19.5653 23.3759 18.8761 23.3848C17.7282 23.438 17.4044 23.4513 14.4609 23.4513C11.515 23.4513 11.2141 23.4513 10.0444 23.3848C9.35557 23.3764 8.67335 23.2493 8.0277 23.009C7.55607 22.829 7.1275 22.5519 6.7697 22.1958C6.41189 21.8396 6.13284 21.4123 5.95058 20.9416C5.71308 20.2952 5.58604 19.6134 5.57479 18.9249C5.52283 17.7769 5.51074 17.4531 5.51074 14.5096C5.51074 11.5649 5.51074 11.264 5.57479 10.0931C5.5826 9.39718 5.7097 8.7077 5.95058 8.05469C6.31912 7.10131 7.07433 6.35094 8.0277 5.98602C8.67367 5.74694 9.35569 5.61985 10.0444 5.61023C11.1935 5.55827 11.5162 5.54377 14.4609 5.54377C17.4056 5.54377 17.7077 5.54377 18.8761 5.61023C19.5654 5.61852 20.248 5.74565 20.894 5.98602C21.364 6.1676 21.7908 6.44543 22.147 6.80168C22.5033 7.15794 22.7811 7.58473 22.9627 8.05469C23.2002 8.70109 23.3272 9.38284 23.3385 10.0714C23.3905 11.2205 23.4037 11.5431 23.4037 14.4879C23.4037 17.4314 23.4037 17.7479 23.3518 18.9031H23.3385V18.9019Z" fill="black"/>
</g>
</svg>
