<svg width="29" height="29" viewBox="0 0 29 29" fill="none" xmlns="http://www.w3.org/2000/svg">
<g id="bxl-github">
<path id="Vector" fill-rule="evenodd" clip-rule="evenodd" d="M14.5314 2.41663C7.8747 2.41663 2.47949 7.81183 2.47949 14.4685C2.47949 19.7925 5.9317 24.3104 10.7215 25.9054C11.3245 26.0142 11.542 25.6432 11.542 25.3242C11.542 25.0378 11.5323 24.279 11.5287 23.2749C8.17558 24.0023 7.46749 21.6581 7.46749 21.6581C6.92133 20.2661 6.12987 19.8952 6.12987 19.8952C5.03633 19.1472 6.21324 19.1641 6.21324 19.1641C7.42399 19.2487 8.05837 20.4063 8.05837 20.4063C9.13378 22.2478 10.881 21.7161 11.565 21.408C11.6749 20.6286 11.9891 20.097 12.3322 19.7961C9.65699 19.4928 6.84399 18.4585 6.84399 13.839C6.84399 12.5255 7.31403 11.4477 8.08133 10.6067C7.95928 10.301 7.54241 9.07454 8.20095 7.41671C8.20095 7.41671 9.21233 7.09167 11.5142 8.65042C12.4973 8.38298 13.5114 8.24647 14.5302 8.24442C15.549 8.24607 16.5632 8.38259 17.5462 8.65042C19.8493 7.09046 20.8595 7.41671 20.8595 7.41671C21.518 9.07454 21.1047 10.301 20.9791 10.6067C21.7524 11.4477 22.2164 12.5243 22.2164 13.839C22.2164 18.4705 19.401 19.488 16.7161 19.7864C17.145 20.1586 17.5317 20.8933 17.5317 22.017C17.5317 23.6289 17.5172 24.9291 17.5172 25.3242C17.5172 25.6468 17.7323 26.0214 18.3473 25.903C23.1347 24.3056 26.5833 19.7913 26.5833 14.4685C26.5833 7.81183 21.1881 2.41663 14.5314 2.41663Z" fill="black"/>
</g>
</svg>
